<svg width="375" height="375" viewBox="0 0 375 375" fill="none" xmlns="http://www.w3.org/2000/svg">
<rect width="375" height="375" fill="white"/>
<rect width="375" height="375" fill="black"/>
<path d="M139.157 81.5098L110.922 116.02L96.8039 94.0588L139.157 81.5098Z" fill="#F7A41D"/>
<path d="M139.157 81.5098L118.765 98.7647L110.922 116.02H101.51V196.02H115.627L98.3725 203.863L85.8235 230.529H67V81.5098H139.157Z" fill="#F7A41D"/>
<path d="M115.627 196.02L85.8236 230.529L73.2745 213.274L115.627 196.02Z" fill="#F7A41D"/>
<path d="M154.843 81.5098L164.255 103.471L125.039 116.02L154.843 81.5098Z" fill="#F7A41D"/>
<path d="M154.843 81.5098H241.118V116.02H125.039L154.843 97.1961V81.5098Z" fill="#F7A41D"/>
<path d="M248.961 196.02L219.157 230.529L208.176 210.137L248.961 196.02Z" fill="#F7A41D"/>
<path d="M248.961 196.02L223.863 210.137L219.157 230.529H132.882V196.02H248.961Z" fill="#F7A41D"/>
<path d="M302.294 47L148.569 230.529L71.7059 266.608L225.431 81.5098L302.294 47Z" fill="#F7A41D"/>
<path d="M288.176 81.5098L286.608 109.745L258.373 117.588L288.176 81.5098Z" fill="#F7A41D"/>
<path d="M307 81.5098V230.529H233.275L255.235 211.706L263.078 196.02H272.49V117.588H258.373L274.059 103.471L288.176 81.5098H307Z" fill="#F7A41D"/>
<path d="M263.078 196.02L270.922 219.549L233.275 230.529L263.078 196.02Z" fill="#F7A41D"/>
<path d="M91.752 321.64C88.2107 321.64 84.968 321.064 82.024 319.912C79.08 318.76 76.52 317.139 74.344 315.048C72.168 312.957 70.4827 310.483 69.288 307.624C68.136 304.765 67.56 301.651 67.56 298.28C67.56 294.867 68.136 291.752 69.288 288.936C70.4827 286.077 72.168 283.603 74.344 281.512C76.52 279.421 79.08 277.8 82.024 276.648C84.968 275.496 88.1893 274.92 91.688 274.92C95.2293 274.92 98.4507 275.496 101.352 276.648C104.296 277.8 106.856 279.421 109.032 281.512C111.208 283.603 112.872 286.077 114.024 288.936C115.219 291.752 115.816 294.845 115.816 298.216C115.816 301.629 115.219 304.765 114.024 307.624C112.872 310.483 111.208 312.957 109.032 315.048C106.856 317.139 104.296 318.76 101.352 319.912C98.4507 321.064 95.2507 321.64 91.752 321.64ZM91.688 308.84C93.1387 308.84 94.4613 308.584 95.656 308.072C96.8933 307.56 97.96 306.835 98.856 305.896C99.7947 304.915 100.499 303.784 100.968 302.504C101.48 301.224 101.736 299.816 101.736 298.28C101.736 296.744 101.48 295.336 100.968 294.056C100.499 292.776 99.7947 291.667 98.856 290.728C97.96 289.747 96.8933 289 95.656 288.488C94.4613 287.976 93.1387 287.72 91.688 287.72C90.2373 287.72 88.8933 287.976 87.656 288.488C86.4613 289 85.3947 289.747 84.456 290.728C83.56 291.667 82.856 292.776 82.344 294.056C81.8747 295.336 81.64 296.744 81.64 298.28C81.64 299.816 81.8747 301.224 82.344 302.504C82.856 303.784 83.56 304.915 84.456 305.896C85.3947 306.835 86.4613 307.56 87.656 308.072C88.8933 308.584 90.2373 308.84 91.688 308.84ZM139.175 321.64C135.804 321.64 132.818 321.277 130.215 320.552C127.655 319.784 125.394 318.717 123.431 317.352C121.511 315.987 119.783 314.387 118.247 312.552L126.247 303.592C128.38 306.323 130.599 308.136 132.903 309.032C135.25 309.885 137.447 310.312 139.495 310.312C140.306 310.312 141.031 310.248 141.671 310.12C142.311 309.949 142.802 309.693 143.143 309.352C143.484 309.011 143.655 308.541 143.655 307.944C143.655 307.389 143.463 306.92 143.079 306.536C142.738 306.152 142.268 305.832 141.671 305.576C141.074 305.277 140.412 305.043 139.687 304.872C139.004 304.659 138.322 304.488 137.639 304.36C136.999 304.232 136.423 304.104 135.911 303.976C133.351 303.379 131.111 302.653 129.191 301.8C127.271 300.947 125.671 299.923 124.391 298.728C123.111 297.533 122.151 296.168 121.511 294.632C120.914 293.096 120.615 291.368 120.615 289.448C120.615 287.272 121.106 285.288 122.087 283.496C123.111 281.704 124.455 280.168 126.119 278.888C127.826 277.608 129.746 276.627 131.879 275.944C134.055 275.261 136.295 274.92 138.599 274.92C141.97 274.92 144.786 275.24 147.047 275.88C149.308 276.477 151.207 277.352 152.743 278.504C154.279 279.656 155.602 281 156.711 282.536L148.647 290.28C147.708 289.384 146.727 288.659 145.703 288.104C144.679 287.507 143.612 287.08 142.503 286.824C141.436 286.525 140.37 286.376 139.303 286.376C138.322 286.376 137.49 286.461 136.807 286.632C136.124 286.76 135.591 286.995 135.207 287.336C134.823 287.635 134.631 288.061 134.631 288.616C134.631 289.171 134.866 289.64 135.335 290.024C135.847 290.365 136.466 290.664 137.191 290.92C137.959 291.176 138.706 291.389 139.431 291.56C140.199 291.688 140.839 291.795 141.351 291.88C143.698 292.307 145.852 292.904 147.815 293.672C149.778 294.397 151.484 295.336 152.935 296.488C154.428 297.597 155.559 299.005 156.327 300.712C157.138 302.376 157.543 304.36 157.543 306.664C157.543 309.949 156.711 312.701 155.047 314.92C153.426 317.139 151.228 318.824 148.455 319.976C145.682 321.085 142.588 321.64 139.175 321.64ZM186.87 321V276.2H206.582C209.953 276.2 213.046 276.755 215.862 277.864C218.678 278.973 221.131 280.531 223.222 282.536C225.313 284.499 226.913 286.845 228.022 289.576C229.174 292.307 229.75 295.315 229.75 298.6C229.75 301.843 229.174 304.851 228.022 307.624C226.913 310.355 225.313 312.723 223.222 314.728C221.131 316.691 218.678 318.227 215.862 319.336C213.046 320.445 209.953 321 206.582 321H186.87ZM200.694 312.488L198.326 309.224H206.262C207.67 309.224 208.95 308.968 210.102 308.456C211.254 307.901 212.257 307.155 213.11 306.216C213.963 305.277 214.625 304.168 215.094 302.888C215.563 301.565 215.798 300.136 215.798 298.6C215.798 297.064 215.563 295.656 215.094 294.376C214.625 293.053 213.963 291.923 213.11 290.984C212.257 290.045 211.254 289.32 210.102 288.808C208.95 288.253 207.67 287.976 206.262 287.976H198.134L200.694 284.84V312.488ZM253.369 321.64C249.401 321.64 245.987 320.872 243.129 319.336C240.27 317.8 238.073 315.709 236.536 313.064C235.001 310.376 234.233 307.304 234.233 303.848C234.233 301.288 234.659 298.92 235.513 296.744C236.366 294.568 237.561 292.691 239.097 291.112C240.675 289.491 242.51 288.253 244.601 287.4C246.734 286.504 249.059 286.056 251.577 286.056C254.094 286.056 256.377 286.504 258.425 287.4C260.515 288.253 262.307 289.491 263.801 291.112C265.294 292.691 266.425 294.568 267.193 296.744C268.003 298.92 268.366 301.288 268.281 303.848L268.217 306.536H241.401L239.929 300.456H257.913L256.697 301.736V300.584C256.697 299.773 256.483 299.069 256.057 298.472C255.673 297.832 255.118 297.341 254.393 297C253.667 296.659 252.814 296.488 251.833 296.488C250.595 296.488 249.55 296.744 248.697 297.256C247.843 297.768 247.182 298.493 246.713 299.432C246.286 300.371 246.073 301.501 246.073 302.824C246.073 304.36 246.393 305.704 247.033 306.856C247.715 308.008 248.697 308.904 249.977 309.544C251.299 310.184 252.921 310.504 254.841 310.504C256.121 310.504 257.209 310.355 258.105 310.056C259.043 309.715 260.025 309.181 261.049 308.456L267.001 316.84C265.422 318.077 263.865 319.037 262.329 319.72C260.835 320.403 259.342 320.893 257.849 321.192C256.398 321.491 254.905 321.64 253.369 321.64ZM283.716 321L269.508 286.76H283.972L291.076 312.296H287.62L294.66 286.76H309.124L294.212 321H283.716Z" fill="#F7A41D"/>
</svg>
